<svg width="290" height="363" viewBox="0 0 290 363" fill="none" xmlns="http://www.w3.org/2000/svg">
<g clip-path="url(#clip0_123_5346)">
<path d="M151.902 0H47.6372V51.1397L-3.11333 0H-10.9018C-87.0275 0 -149 61.9368 -149 138.019C-149 214.101 -87.0275 276.037 -10.9018 276.037H37.7551V229.92L132.389 363V276.037H151.902C228.027 276.037 290 214.101 290 138.019C290 61.9368 228.027 0 151.902 0ZM151.902 213.933H-10.9018C-52.7751 213.933 -86.86 179.868 -86.86 138.019C-86.86 96.1695 -52.7751 62.1042 -10.9018 62.1042H151.902C193.775 62.1042 227.86 96.1695 227.86 138.019C227.86 179.868 193.775 213.933 151.902 213.933Z" fill="white" fill-opacity="0.01"/>
</g>
<defs>
<clipPath id="clip0_123_5346">
<rect width="439" height="363" fill="white" transform="translate(-149)"/>
</clipPath>
</defs>
</svg>
