<svg width="93" height="72" viewBox="0 0 93 72" fill="none" xmlns="http://www.w3.org/2000/svg">
<g clip-path="url(#clip0_123_5325)">
<path d="M54.2531 0H44.3264V4.88155L39.4774 0H38.7455C31.4949 0 25.5938 5.91287 25.5938 13.1779C25.5938 20.4429 31.4949 26.3558 38.7455 26.3558H43.3886V21.9555L52.4004 34.6522V26.3558H54.2531C61.5037 26.3558 67.4048 20.4429 67.4048 13.1779C67.4048 5.91287 61.5037 0 54.2531 0ZM54.2531 20.42H38.7455C34.7657 20.42 31.5177 17.1657 31.5177 13.1779C31.5177 9.19016 34.7657 5.93579 38.7455 5.93579H54.2531C58.2329 5.93579 61.4808 9.19016 61.4808 13.1779C61.4808 17.1657 58.2329 20.42 54.2531 20.42Z" fill="url(#paint0_linear_123_5325)"/>
<path d="M15.8736 63.9422H5.1692L2.333 71.5281H0L9.08041 46.9141H11.9166L21.0428 71.5281H18.7098L15.8736 63.9422ZM15.1645 61.9942L10.5443 49.458L5.87825 61.9942H15.1645Z" fill="white"/>
<path d="M22.3471 67.516L24.3599 66.7368C25.0003 68.8223 26.8987 70.0599 29.8264 70.0599C32.7541 70.0599 34.4467 68.8453 34.4467 66.691C34.4467 61.5573 23.2391 63.8262 23.2391 57.4091C23.2391 50.9921 25.8237 52.4588 29.6434 52.4588C33.4632 52.4588 35.1557 53.7651 36.002 56.2174L34.0121 56.9966C33.303 55.1632 31.7935 54.2693 29.6206 54.2693C27.4477 54.2693 25.5264 55.3923 25.5264 57.2716C25.5264 62.1303 36.7339 59.678 36.7339 66.5076C36.7339 73.3372 33.9435 71.8934 29.7349 71.8934C25.5264 71.8934 23.2391 70.2891 22.3242 67.4931L22.3471 67.516Z" fill="white"/>
<path d="M52.9277 71.5264L43.001 61.9924V71.5264H40.668V45.6289H43.001V60.8236L52.5388 52.8481H55.3293L45.517 61.4195L55.6495 71.5034H52.9277V71.5264Z" fill="white"/>
<path d="M79.6434 71.5281L78.3625 53.3311L72.4614 70.6343H68.7103L62.8092 53.354L61.5054 71.5281H57.2969L59.0581 46.9141H63.2666V46.9599L64.2959 46.9141L70.5858 65.2485L76.8758 46.9141L77.9051 46.9599V46.9141H82.0679L83.8291 71.5281H79.6205H79.6434Z" fill="white"/>
<path d="M86.8711 46.9133C86.8711 45.1716 88.2206 43.8652 89.936 43.8652C91.6515 43.8652 93.0009 45.1716 93.0009 46.9133C93.0009 48.6551 91.6515 49.8927 89.936 49.8927C88.2206 49.8927 86.8711 48.6551 86.8711 46.9133ZM87.6716 52.8491H92.1547V71.5045H87.6716V52.8491Z" fill="white"/>
</g>
<defs>
<linearGradient id="paint0_linear_123_5325" x1="25.5938" y1="17.3261" x2="67.4048" y2="17.3261" gradientUnits="userSpaceOnUse">
<stop stop-color="#1629BC"/>
<stop offset="1" stop-color="#2693E7"/>
</linearGradient>
<clipPath id="clip0_123_5325">
<rect width="93" height="72" fill="white"/>
</clipPath>
</defs>
</svg>
